<?xml version="1.0" encoding="UTF-8" standalone="no"?>
<!-- Created with Inkscape (http://www.inkscape.org/) -->

<svg
   xmlns:dc="http://purl.org/dc/elements/1.1/"
   xmlns:cc="http://creativecommons.org/ns#"
   xmlns:rdf="http://www.w3.org/1999/02/22-rdf-syntax-ns#"
   xmlns:svg="http://www.w3.org/2000/svg"
   xmlns="http://www.w3.org/2000/svg"
   xmlns:xlink="http://www.w3.org/1999/xlink"
   xmlns:sodipodi="http://sodipodi.sourceforge.net/DTD/sodipodi-0.dtd"
   xmlns:inkscape="http://www.inkscape.org/namespaces/inkscape"
   width="744.09448819"
   height="1052.3622047"
   id="svg2"
   version="1.1"
   inkscape:version="0.48.5 r10040"
   sodipodi:docname="feather.svg"
   inkscape:export-filename="C:\Users\dflanagan\Documents\goof\gamestory\resources\assets\images\feather.png"
   inkscape:export-xdpi="90"
   inkscape:export-ydpi="90">
  <defs
     id="defs4">
    <linearGradient
       id="linearGradient3860">
      <stop
         style="stop-color:#fff4ce;stop-opacity:1;"
         offset="0"
         id="stop3862" />
      <stop
         id="stop3870"
         offset="0.4230324"
         style="stop-color:#ffefd5;stop-opacity:1;" />
      <stop
         style="stop-color:#e1dddb;stop-opacity:1;"
         offset="0.4230324"
         id="stop3872" />
      <stop
         id="stop3868"
         offset="1"
         style="stop-color:#d8dbdd;stop-opacity:1;" />
      <stop
         style="stop-color:#fff4ff;stop-opacity:0;"
         offset="1"
         id="stop3864" />
    </linearGradient>
    <linearGradient
       inkscape:collect="always"
       xlink:href="#linearGradient3860"
       id="linearGradient3866"
       x1="273.93936"
       y1="716.10645"
       x2="207"
       y2="836.86218"
       gradientUnits="userSpaceOnUse"
       spreadMethod="repeat" />
  </defs>
  <sodipodi:namedview
     id="base"
     pagecolor="#ffffff"
     bordercolor="#666666"
     borderopacity="1.0"
     inkscape:pageopacity="0.0"
     inkscape:pageshadow="2"
     inkscape:zoom="0.3108641"
     inkscape:cx="485.19133"
     inkscape:cy="522.63026"
     inkscape:document-units="px"
     inkscape:current-layer="layer1"
     showgrid="false"
     inkscape:window-width="1074"
     inkscape:window-height="822"
     inkscape:window-x="-1"
     inkscape:window-y="1044"
     inkscape:window-maximized="0" />
  <metadata
     id="metadata7">
    <rdf:RDF>
      <cc:Work
         rdf:about="">
        <dc:format>image/svg+xml</dc:format>
        <dc:type
           rdf:resource="http://purl.org/dc/dcmitype/StillImage" />
        <dc:title></dc:title>
      </cc:Work>
    </rdf:RDF>
  </metadata>
  <g
     inkscape:label="Layer 1"
     inkscape:groupmode="layer"
     id="layer1">
    <path
       style="fill:#000000;fill-opacity:1;stroke:none"
       d="M 542.625 252.5 C 400.81582 254.00357 292.18804 332.10805 205.625 544.125 L 105.75 623.46875 L 148.34375 635.21875 L 233.5625 561.75 C 325.89094 546.71801 419.54104 546.43998 508.21875 491.25 L 452.40625 441.3125 C 494.62219 430.26897 537.9954 428.90372 591.9375 441.3125 C 657.72557 396.81709 645.75428 326.41578 669.78125 268 C 624.62485 257.66399 582.33157 252.079 542.625 252.5 z M 619.84375 288.5625 C 552.0904 317.90933 443.91743 383.89315 251.1875 526.5 C 291.08889 486.43432 333.78311 444.82082 408.34375 385.5 C 588.75279 272.20326 577.87192 299.85287 619.84375 288.5625 z "
       id="path3885" />
    <path
       style="fill:#000000;fill-opacity:1;stroke:none"
       d="m 327.64849,733.80999 c -8.01174,-18.58349 -13.97715,-30.28488 -30.9403,-35.44125 l -42.59672,-1.46885 c -8.92666,-25.39384 -19.08405,-33.24472 -38.19016,-35.25246 l -43.30812,-0.56866 c -25.20661,3.63012 -32.06686,16.70564 -34.54106,38.52169 L 100.2135,699.26893 C 74.171765,701.78192 69.628361,717.5892 67.567213,735.09005 L 66.09836,820.2835 c 3.906874,15.80678 13.859028,24.80077 34.44666,31.50895 l 186.02395,-1.46885 c 20.81347,-1.56619 39.93468,-13.92324 40.6536,-40.13328 z"
       id="path3890"
       inkscape:connector-curvature="0"
       sodipodi:nodetypes="ccccccccccccc" />
  </g>
</svg>
